<svg width="2113" height="1616" viewBox="0 0 2113 1616" fill="none" xmlns="http://www.w3.org/2000/svg">
<path d="M541.472 69.4362C551.74 51.5932 570.741 40.7126 591.625 40.7166L1477.97 40.8843C1489.01 40.8864 1499.95 43.946 1509.58 49.7253L2020.19 356.39C2056.4 378.137 2061.28 428.537 2029.68 454.494L1671.73 748.567L1354.67 967.133L1032.94 1179.13C1019.79 1187.8 1003.52 1190.72 987.78 1187.24L103.677 991.802C63.2314 982.861 42.1948 937.039 62.4094 901.912L541.472 69.4362Z" fill="#DFF6EF"/>
<g filter="url(#filter0_d_762_9)">
<path d="M1375.05 1245.8L1375.13 1245.76L1375.21 1245.71L1719.44 1059.31C1725.47 1056.05 1731.07 1052.06 1736.12 1047.44L1969.01 834.506C2003.17 803.271 2006.26 749.624 1976.05 712.451L1594.78 243.432C1578.27 223.117 1554.06 210.791 1528.47 209.666L633.283 170.345C602.774 169.005 574.278 183.73 557.98 209.258L129.122 881.007C102.221 923.145 116.473 980.66 160.366 1007.09L897.897 1451.21C924.64 1467.31 957.289 1468.43 984.058 1454.16L1375.05 1245.8Z" stroke="#26A17B" stroke-width="57" shape-rendering="crispEdges"/>
</g>
<defs>
<filter id="filter0_d_762_9" x="0.158203" y="58.5996" width="2112" height="1525.19" filterUnits="userSpaceOnUse" color-interpolation-filters="sRGB">
<feFlood flood-opacity="0" result="BackgroundImageFix"/>
<feColorMatrix in="SourceAlpha" type="matrix" values="0 0 0 0 0 0 0 0 0 0 0 0 0 0 0 0 0 0 127 0" result="hardAlpha"/>
<feOffset dy="4"/>
<feGaussianBlur stdDeviation="43.5"/>
<feComposite in2="hardAlpha" operator="out"/>
<feColorMatrix type="matrix" values="0 0 0 0 0 0 0 0 0 0 0 0 0 0 0 0 0 0 0.5 0"/>
<feBlend mode="normal" in2="BackgroundImageFix" result="effect1_dropShadow_762_9"/>
<feBlend mode="normal" in="SourceGraphic" in2="effect1_dropShadow_762_9" result="shape"/>
</filter>
</defs>
</svg>
